<mxfile host="app.diagrams.net" agent="Mozilla/5.0 (Windows NT 10.0; Win64; x64) AppleWebKit/537.36 (KHTML, like Gecko) Chrome/134.0.0.0 Safari/537.36" version="26.1.3">
  <diagram name="Trang-1" id="L6nJ9Wi7jFB3Glcz7WUO">
    <mxGraphModel dx="1050" dy="522" grid="1" gridSize="10" guides="1" tooltips="1" connect="1" arrows="1" fold="1" page="1" pageScale="1" pageWidth="827" pageHeight="1169" math="0" shadow="0">
      <root>
        <mxCell id="0" />
        <mxCell id="1" parent="0" />
        <mxCell id="MKRXpS4WjyEt1aCmzw9R-9" style="edgeStyle=orthogonalEdgeStyle;rounded=0;orthogonalLoop=1;jettySize=auto;html=1;entryX=0;entryY=0.5;entryDx=0;entryDy=0;" edge="1" parent="1" source="MKRXpS4WjyEt1aCmzw9R-1" target="MKRXpS4WjyEt1aCmzw9R-6">
          <mxGeometry relative="1" as="geometry" />
        </mxCell>
        <mxCell id="MKRXpS4WjyEt1aCmzw9R-16" value="D1" style="edgeLabel;html=1;align=center;verticalAlign=middle;resizable=0;points=[];" vertex="1" connectable="0" parent="MKRXpS4WjyEt1aCmzw9R-9">
          <mxGeometry x="-0.0743" y="-3" relative="1" as="geometry">
            <mxPoint as="offset" />
          </mxGeometry>
        </mxCell>
        <mxCell id="MKRXpS4WjyEt1aCmzw9R-1" value="Admin" style="rounded=0;whiteSpace=wrap;html=1;" vertex="1" parent="1">
          <mxGeometry x="80" y="330" width="120" height="60" as="geometry" />
        </mxCell>
        <mxCell id="MKRXpS4WjyEt1aCmzw9R-14" style="edgeStyle=orthogonalEdgeStyle;rounded=0;orthogonalLoop=1;jettySize=auto;html=1;entryX=0.5;entryY=0;entryDx=0;entryDy=0;" edge="1" parent="1" source="MKRXpS4WjyEt1aCmzw9R-2" target="MKRXpS4WjyEt1aCmzw9R-5">
          <mxGeometry relative="1" as="geometry" />
        </mxCell>
        <mxCell id="MKRXpS4WjyEt1aCmzw9R-22" value="D6" style="edgeLabel;html=1;align=center;verticalAlign=middle;resizable=0;points=[];" vertex="1" connectable="0" parent="MKRXpS4WjyEt1aCmzw9R-14">
          <mxGeometry x="-0.008" y="3" relative="1" as="geometry">
            <mxPoint as="offset" />
          </mxGeometry>
        </mxCell>
        <mxCell id="MKRXpS4WjyEt1aCmzw9R-2" value="Sửa sản phẩm" style="ellipse;whiteSpace=wrap;html=1;" vertex="1" parent="1">
          <mxGeometry x="340" y="450" width="120" height="60" as="geometry" />
        </mxCell>
        <mxCell id="MKRXpS4WjyEt1aCmzw9R-13" style="edgeStyle=orthogonalEdgeStyle;rounded=0;orthogonalLoop=1;jettySize=auto;html=1;" edge="1" parent="1" source="MKRXpS4WjyEt1aCmzw9R-3" target="MKRXpS4WjyEt1aCmzw9R-2">
          <mxGeometry relative="1" as="geometry" />
        </mxCell>
        <mxCell id="MKRXpS4WjyEt1aCmzw9R-21" value="D5" style="edgeLabel;html=1;align=center;verticalAlign=middle;resizable=0;points=[];" vertex="1" connectable="0" parent="MKRXpS4WjyEt1aCmzw9R-13">
          <mxGeometry x="0.0543" y="-1" relative="1" as="geometry">
            <mxPoint as="offset" />
          </mxGeometry>
        </mxCell>
        <mxCell id="MKRXpS4WjyEt1aCmzw9R-3" value="Thiết bị nhập" style="rounded=0;whiteSpace=wrap;html=1;" vertex="1" parent="1">
          <mxGeometry x="70" y="450" width="120" height="60" as="geometry" />
        </mxCell>
        <mxCell id="MKRXpS4WjyEt1aCmzw9R-4" value="Thiết bị xuất" style="rounded=0;whiteSpace=wrap;html=1;" vertex="1" parent="1">
          <mxGeometry x="580" y="450" width="120" height="60" as="geometry" />
        </mxCell>
        <mxCell id="MKRXpS4WjyEt1aCmzw9R-15" style="edgeStyle=orthogonalEdgeStyle;rounded=0;orthogonalLoop=1;jettySize=auto;html=1;entryX=0.5;entryY=1;entryDx=0;entryDy=0;" edge="1" parent="1" source="MKRXpS4WjyEt1aCmzw9R-5" target="MKRXpS4WjyEt1aCmzw9R-4">
          <mxGeometry relative="1" as="geometry" />
        </mxCell>
        <mxCell id="MKRXpS4WjyEt1aCmzw9R-23" value="D7" style="edgeLabel;html=1;align=center;verticalAlign=middle;resizable=0;points=[];" vertex="1" connectable="0" parent="MKRXpS4WjyEt1aCmzw9R-15">
          <mxGeometry x="-0.2856" y="-2" relative="1" as="geometry">
            <mxPoint as="offset" />
          </mxGeometry>
        </mxCell>
        <mxCell id="MKRXpS4WjyEt1aCmzw9R-5" value="Database" style="shape=partialRectangle;whiteSpace=wrap;html=1;left=0;right=0;fillColor=none;" vertex="1" parent="1">
          <mxGeometry x="340" y="585" width="120" height="60" as="geometry" />
        </mxCell>
        <mxCell id="MKRXpS4WjyEt1aCmzw9R-10" value="" style="edgeStyle=orthogonalEdgeStyle;rounded=0;orthogonalLoop=1;jettySize=auto;html=1;" edge="1" parent="1" source="MKRXpS4WjyEt1aCmzw9R-6" target="MKRXpS4WjyEt1aCmzw9R-7">
          <mxGeometry relative="1" as="geometry" />
        </mxCell>
        <mxCell id="MKRXpS4WjyEt1aCmzw9R-17" value="D2" style="edgeLabel;html=1;align=center;verticalAlign=middle;resizable=0;points=[];" vertex="1" connectable="0" parent="MKRXpS4WjyEt1aCmzw9R-10">
          <mxGeometry x="0.2356" y="3" relative="1" as="geometry">
            <mxPoint as="offset" />
          </mxGeometry>
        </mxCell>
        <mxCell id="MKRXpS4WjyEt1aCmzw9R-12" style="edgeStyle=orthogonalEdgeStyle;rounded=0;orthogonalLoop=1;jettySize=auto;html=1;entryX=0.5;entryY=0;entryDx=0;entryDy=0;" edge="1" parent="1" source="MKRXpS4WjyEt1aCmzw9R-6" target="MKRXpS4WjyEt1aCmzw9R-2">
          <mxGeometry relative="1" as="geometry" />
        </mxCell>
        <mxCell id="MKRXpS4WjyEt1aCmzw9R-20" value="D4" style="edgeLabel;html=1;align=center;verticalAlign=middle;resizable=0;points=[];" vertex="1" connectable="0" parent="MKRXpS4WjyEt1aCmzw9R-12">
          <mxGeometry x="-0.1927" y="-3" relative="1" as="geometry">
            <mxPoint as="offset" />
          </mxGeometry>
        </mxCell>
        <mxCell id="MKRXpS4WjyEt1aCmzw9R-6" value="Kiểm tra sản phẩm" style="ellipse;whiteSpace=wrap;html=1;" vertex="1" parent="1">
          <mxGeometry x="340" y="325" width="120" height="70" as="geometry" />
        </mxCell>
        <mxCell id="MKRXpS4WjyEt1aCmzw9R-11" style="edgeStyle=orthogonalEdgeStyle;rounded=0;orthogonalLoop=1;jettySize=auto;html=1;" edge="1" parent="1" source="MKRXpS4WjyEt1aCmzw9R-7" target="MKRXpS4WjyEt1aCmzw9R-1">
          <mxGeometry relative="1" as="geometry" />
        </mxCell>
        <mxCell id="MKRXpS4WjyEt1aCmzw9R-18" value="D3" style="edgeLabel;html=1;align=center;verticalAlign=middle;resizable=0;points=[];" vertex="1" connectable="0" parent="MKRXpS4WjyEt1aCmzw9R-11">
          <mxGeometry x="-0.0827" relative="1" as="geometry">
            <mxPoint as="offset" />
          </mxGeometry>
        </mxCell>
        <mxCell id="MKRXpS4WjyEt1aCmzw9R-7" value="Không thể sửa, sản phẩm không tồn tại" style="ellipse;whiteSpace=wrap;html=1;" vertex="1" parent="1">
          <mxGeometry x="290" y="220" width="220" height="70" as="geometry" />
        </mxCell>
      </root>
    </mxGraphModel>
  </diagram>
</mxfile>
